<svg xmlns="http://www.w3.org/2000/svg" width="500" height="500" viewBox="0 0 500 500" version="1.1"><path d="M 215 103.975 C 177.045 112.167, 148.072 139.322, 136.323 177.716 C 133.842 185.823, 133.631 187.887, 133.587 204.500 C 133.529 226.028, 135.493 235.012, 144.009 252.176 C 146.496 257.190, 154.772 270, 155.523 270 C 155.651 270, 157.415 269.307, 159.443 268.460 L 163.129 266.919 159.750 262.210 C 152.141 251.606, 147.107 240.803, 143.344 227 C 140.638 217.076, 140.890 192.263, 143.806 181.500 C 148.180 165.355, 159.825 145.641, 170.658 136.041 C 189.308 119.513, 208.774 111.414, 232.500 110.312 C 251.360 109.435, 271.886 114.925, 287.025 124.894 C 302.455 135.056, 313.468 147.227, 320.850 162.279 C 328.325 177.518, 330.973 188.535, 331 204.500 L 331.015 213.500 335.130 215.850 L 339.244 218.200 338.716 202.350 C 337.959 179.609, 333.382 164.873, 321.544 147.066 C 306.838 124.946, 279.341 107.291, 253 103.059 C 242.925 101.441, 224.709 101.880, 215 103.975" stroke="none" fill="#040404" fill-rule="evenodd"/><path d="M 219.200 131.200 C 218.405 131.995, 218 136.306, 218 143.977 C 218 160.264, 218.253 160, 202.643 160 C 194.454 160, 190.003 160.397, 189.200 161.200 C 188.365 162.035, 188 167.348, 188 178.665 C 188 193.722, 188.144 195.006, 189.934 195.965 C 190.998 196.534, 197.048 197, 203.378 197 C 218.162 197, 218 196.821, 218 213.187 C 218 223.773, 218.191 225.032, 219.934 225.965 C 221.021 226.546, 228.444 227, 236.878 227 C 255.674 227, 255 227.596, 255 210.977 C 255 203.306, 255.405 198.995, 256.200 198.200 C 257.003 197.397, 261.454 197, 269.643 197 C 285.566 197, 285 197.702, 285 177.932 C 285 159.352, 285.538 160, 270.106 160 C 263.925 160, 257.998 159.534, 256.934 158.965 C 255.191 158.032, 255 156.773, 255 146.187 C 255 129.306, 255.808 130, 236.143 130 C 225.232 130, 220.032 130.368, 219.200 131.200 M 328.357 224.992 C 325.581 226.112, 323.163 229.613, 322.416 233.595 C 321.856 236.580, 321.666 236.700, 319.059 235.716 C 315.075 234.212, 313.172 235.358, 310.819 240.676 C 309.098 244.567, 308.830 246.689, 309.262 252.997 C 309.748 260.083, 309.634 260.685, 307.642 261.559 C 304.717 262.844, 303.322 267.799, 302.816 278.705 L 302.388 287.910 306.301 285.711 C 308.453 284.501, 312.753 281.205, 315.857 278.386 L 321.500 273.260 322 257.380 L 322.500 241.500 323.750 251.192 C 326.302 270.981, 325.276 275.399, 316.534 282.260 C 304.552 291.665, 284.562 298.957, 266.312 300.581 C 254.529 301.629, 240.106 297.502, 230.257 290.264 C 227.641 288.341, 226.244 287.014, 227.154 287.316 C 228.064 287.617, 233.338 288.390, 238.874 289.034 C 255.969 291.021, 271.949 287.636, 279.336 280.462 C 285.148 274.817, 286.332 265.880, 281.898 261.121 L 280.018 259.103 274.259 261.759 C 267.217 265.008, 254.796 265.821, 238.912 264.075 C 213.408 261.270, 208.465 261.010, 200.182 262.040 C 178.329 264.755, 161.690 274.322, 149.040 291.445 C 143.929 298.364, 137.753 311.238, 135.652 319.354 C 133.915 326.059, 132.942 325.696, 144.500 322.651 C 155.228 319.824, 166.466 318.945, 178.401 319.997 C 190.047 321.024, 208.324 325.101, 221 329.500 C 242.816 337.071, 257.625 338.599, 274.812 335.052 C 285.529 332.841, 292.487 329.714, 306.459 320.832 C 317.305 313.937, 325.084 305.892, 334.771 291.552 L 340 283.813 339.969 267.156 C 339.925 243.491, 337.946 229.946, 333.947 225.947 C 331.798 223.798, 331.459 223.740, 328.357 224.992" stroke="none" fill="#fa5555" fill-rule="evenodd"/></svg>